<svg width="18" height="18" viewBox="0 0 18 18" fill="none" xmlns="http://www.w3.org/2000/svg">
<path fill-rule="evenodd" clip-rule="evenodd" d="M3.0575 4.89812C3.17468 4.514 3.53188 4.23456 3.95434 4.23456H14.4543C14.8768 4.23456 15.234 4.514 15.3512 4.89812L9.20434 8.99602L3.0575 4.89812ZM1.89187 5.16176C1.89177 5.16776 1.89176 5.17376 1.89184 5.17975V12.6721C1.89184 13.8111 2.81526 14.7346 3.95434 14.7346H14.4543C15.5934 14.7346 16.5168 13.8111 16.5168 12.6721V5.17975M15.3918 6.2231V12.6721C15.3918 13.1898 14.9721 13.6096 14.4543 13.6096H3.95434C3.43658 13.6096 3.01684 13.1898 3.01684 12.6721V6.2231L8.89233 10.1401C9.08127 10.266 9.32742 10.266 9.51636 10.1401L15.3918 6.2231ZM16.5168 5.16176C16.5113 4.02741 15.59 3.10956 14.4543 3.10956H3.95434C2.81869 3.10956 1.89742 4.02741 1.89187 5.16176" fill="#101828"/>
</svg>
