<svg width="18" height="18" viewBox="0 0 18 18" fill="none" xmlns="http://www.w3.org/2000/svg">
<path fill-rule="evenodd" clip-rule="evenodd" d="M6.24335 3.5235C4.89715 3.5235 3.80585 4.6148 3.80585 5.961V11.961C3.80585 13.3072 4.89715 14.3985 6.24335 14.3985H12.2433C13.5895 14.3985 14.6808 13.3072 14.6808 11.961V5.961C14.6808 4.6148 13.5895 3.5235 12.2433 3.5235H6.24335ZM2.68085 5.961C2.68085 3.99348 4.27583 2.3985 6.24335 2.3985H12.2433C14.2109 2.3985 15.8058 3.99348 15.8058 5.961V11.961C15.8058 13.9285 14.2109 15.5235 12.2433 15.5235H6.24335C4.27583 15.5235 2.68085 13.9285 2.68085 11.961V5.961ZM9.24335 7.2735C8.31137 7.2735 7.55585 8.02902 7.55585 8.961C7.55585 9.89298 8.31137 10.6485 9.24335 10.6485C10.1753 10.6485 10.9308 9.89298 10.9308 8.961C10.9308 8.02902 10.1753 7.2735 9.24335 7.2735ZM6.43085 8.961C6.43085 7.4077 7.69005 6.1485 9.24335 6.1485C10.7966 6.1485 12.0558 7.4077 12.0558 8.961C12.0558 10.5143 10.7966 11.7735 9.24335 11.7735C7.69005 11.7735 6.43085 10.5143 6.43085 8.961ZM13.1808 5.586C13.1808 5.27534 12.929 5.0235 12.6183 5.0235C12.3077 5.0235 12.0558 5.27534 12.0558 5.586V5.587C12.0558 5.89766 12.3077 6.1495 12.6183 6.1495C12.929 6.1495 13.1808 5.89766 13.1808 5.587V5.586Z" fill="#101828"/>
</svg>
