<svg width="155" height="36" viewBox="0 0 155 36" fill="none" xmlns="http://www.w3.org/2000/svg">
<g clip-path="url(#clip0_35_1858)">
<path fill-rule="evenodd" clip-rule="evenodd" d="M13.2102 25C12.0424 25 10.9223 24.5391 10.0965 23.7186C9.27075 22.8981 8.80682 21.7853 8.80682 20.625V0.5H0V20.625C0 27.8735 5.91466 33.75 13.2102 33.75H22.8977V25H13.2102ZM39.6307 9.25C38.5898 9.25 37.5591 9.45369 36.5975 9.84945C35.6358 10.2452 34.7621 10.8253 34.0261 11.5565C33.2901 12.2878 32.7062 13.1559 32.3079 14.1114C31.9096 15.0668 31.7045 16.0908 31.7045 17.125C31.7045 18.1592 31.9096 19.1832 32.3079 20.1386C32.7062 21.0941 33.2901 21.9622 34.0261 22.6935C34.7621 23.4247 35.6358 24.0048 36.5975 24.4006C37.5591 24.7963 38.5898 25 39.6307 25C41.7328 25 43.7489 24.1703 45.2353 22.6935C46.7217 21.2166 47.5568 19.2136 47.5568 17.125C47.5568 15.0364 46.7217 13.0334 45.2353 11.5565C43.7489 10.0797 41.7328 9.25 39.6307 9.25ZM22.8977 17.125C22.8977 7.94362 30.3897 0.5 39.6307 0.5C48.8717 0.5 56.3636 7.94362 56.3636 17.125C56.3636 26.3064 48.8717 33.75 39.6307 33.75C30.3897 33.75 22.8977 26.3064 22.8977 17.125ZM134.744 9.25C132.642 9.25 130.626 10.0797 129.14 11.5565C127.653 13.0334 126.818 15.0364 126.818 17.125C126.818 19.2136 127.653 21.2166 129.14 22.6935C130.626 24.1703 132.642 25 134.744 25C136.846 25 138.863 24.1703 140.349 22.6935C141.835 21.2166 142.67 19.2136 142.67 17.125C142.67 15.0364 141.835 13.0334 140.349 11.5565C138.863 10.0797 136.846 9.25 134.744 9.25ZM118.011 17.125C118.011 7.94362 125.503 0.5 134.744 0.5C143.985 0.5 151.477 7.94362 151.477 17.125C151.477 26.3064 143.985 33.75 134.744 33.75C125.503 33.75 118.011 26.3064 118.011 17.125ZM74.858 0.5C65.617 0.5 58.125 7.94362 58.125 17.125C58.125 26.3064 65.617 33.75 74.858 33.75H99.5171C101.251 33.75 102.924 33.4875 104.496 33.001L109.205 35.5L114.284 26.0465C115.575 23.64 116.25 20.9551 116.25 18.2284V17.125C116.25 7.94362 108.758 0.5 99.5171 0.5H74.858ZM107.443 17.125C107.443 15.0364 106.608 13.0334 105.122 11.5565C103.635 10.0797 101.619 9.25 99.5171 9.25H74.858C73.8171 9.25 72.7864 9.45369 71.8248 9.84945C70.8631 10.2452 69.9893 10.8253 69.2533 11.5565C68.5173 12.2878 67.9335 13.1559 67.5352 14.1114C67.1368 15.0668 66.9318 16.0908 66.9318 17.125C66.9318 18.1592 67.1368 19.1832 67.5352 20.1386C67.9335 21.0941 68.5173 21.9622 69.2533 22.6935C69.9893 23.4247 70.8631 24.0048 71.8248 24.4006C72.7864 24.7963 73.8171 25 74.858 25H99.5171C101.609 25.0001 103.615 24.1788 105.1 22.7152C106.585 21.2515 107.427 19.2642 107.443 17.1862V17.125Z" fill="#815FF5"/>
<path d="M155 2.6875C155 3.26766 154.768 3.82406 154.355 4.2343C153.942 4.64453 153.382 4.875 152.798 4.875C152.214 4.875 151.654 4.64453 151.241 4.2343C150.829 3.82406 150.597 3.26766 150.597 2.6875C150.597 2.10734 150.829 1.55094 151.241 1.1407C151.654 0.730468 152.214 0.5 152.798 0.5C153.382 0.5 153.942 0.730468 154.355 1.1407C154.768 1.55094 155 2.10734 155 2.6875Z" fill="#815FF5"/>
</g>
<defs>
<clipPath id="clip0_35_1858">
<rect width="155" height="35" fill="white" transform="translate(0 0.5)"/>
</clipPath>
</defs>
</svg>
