<svg width="40" height="40" viewBox="0 0 40 40" fill="none" xmlns="http://www.w3.org/2000/svg">
<path d="M27.5 15.6666L12.5 7.0166" stroke="#815FF5" stroke-width="3.33333" stroke-linecap="round" stroke-linejoin="round"/>
<path d="M35 26.6663V13.333C34.9994 12.7485 34.8451 12.1744 34.5526 11.6683C34.26 11.1622 33.8396 10.7419 33.3333 10.4497L21.6667 3.78301C21.1599 3.49045 20.5851 3.33643 20 3.33643C19.4149 3.33643 18.8401 3.49045 18.3333 3.78301L6.66667 10.4497C6.16044 10.7419 5.73997 11.1622 5.44744 11.6683C5.1549 12.1744 5.0006 12.7485 5 13.333V26.6663C5.0006 27.2509 5.1549 27.825 5.44744 28.3311C5.73997 28.8371 6.16044 29.2574 6.66667 29.5497L18.3333 36.2163C18.8401 36.5089 19.4149 36.6629 20 36.6629C20.5851 36.6629 21.1599 36.5089 21.6667 36.2163L33.3333 29.5497C33.8396 29.2574 34.26 28.8371 34.5526 28.3311C34.8451 27.825 34.9994 27.2509 35 26.6663Z" stroke="#815FF5" stroke-width="3.33333" stroke-linecap="round" stroke-linejoin="round"/>
<path d="M5.45004 11.6001L20 20.0168L34.55 11.6001" stroke="#815FF5" stroke-width="3.33333" stroke-linecap="round" stroke-linejoin="round"/>
<path d="M20 36.8V20" stroke="#815FF5" stroke-width="3.33333" stroke-linecap="round" stroke-linejoin="round"/>
</svg>
