<svg width="18" height="18" viewBox="0 0 18 18" fill="none" xmlns="http://www.w3.org/2000/svg">
<path d="M16.2272 2.92957C15.4772 3.29707 14.7422 3.44632 13.9772 3.67207C13.1364 2.72332 11.8899 2.67082 10.6922 3.11932C9.49442 3.56782 8.70992 4.66432 8.72717 5.92207V6.67207C6.29342 6.73432 4.12592 5.62582 2.72717 3.67207C2.72717 3.67207 -0.409327 9.24682 5.72717 11.9221C4.32317 12.8573 2.92292 13.4881 1.22717 13.4221C3.70817 14.7743 6.41192 15.2393 8.75267 14.5598C11.4377 13.7798 13.6442 11.7676 14.4909 8.75332C14.7435 7.83657 14.8689 6.88946 14.8637 5.93857C14.8622 5.75182 15.9962 3.85957 16.2272 2.92882V2.92957Z" stroke="#101828" stroke-width="1.125" stroke-linecap="round" stroke-linejoin="round"/>
</svg>
